# xmcd
# 
# Track frame offsets:
#     150
#     1387
#     9500
#     16462
#     27500
#     40962
#     45425
#     47462
#     59575
#     64312
#     74037
#     74975
#     78775
#     89750
#     103375
#     108677
#     116425
#     129827
#     131812
#     146187
#     154512
# 
# Disc length: 2210
# 
# Revision: 0
# Processed by: cddbd v1.5.2PL0 Copyright (c) Steve Scherf et al.
# Submitted via: fre:ac v1.1beta1pre4
# 
DISCID=3808a015
DTITLE=B・M・F/ZYYG/BAAD/MANISH - SLAMDUNK
DYEAR=2000
DGENRE=Soundtrack
TTITLE0=スラダン/On Summer
TTITLE1=ZYYG/ぜったいに 誰も
TTITLE2=スラダン/Blue
TTITLE3=スラダン/Ichiro
TTITLE4=スラダン/Brand New Day
TTITLE5=スラダン/Dreamy
TTITLE6=スラダン/Shock!
TTITLE7=スラダン/Cloudy Sunset
TTITLE8=スラダン/Sakuragi Gundan
TTITLE9=スラダン/Nostalgia
TTITLE10=スラダン/Oh! Boy
TTITLE11=スラダン/From Akagi
TTITLE12=スラダン/Channel 42
TTITLE13=スラダン/Dream Again
TTITLE14=スラダン/Tight Rope
TTITLE15=スラダン/Beat The Hero
TTITLE16=スラダン/Go Ahead!
TTITLE17=スラダン/Head Dunk!
TTITLE18=スラダン/Fight!
TTITLE19=BAAD/ENDLESS CHAIN
TTITLE20=MANISH/煌く瞬間に捕らわれて
EXTD=
EXTT0=
EXTT1=
EXTT2=
EXTT3=
EXTT4=
EXTT5=
EXTT6=
EXTT7=
EXTT8=
EXTT9=
EXTT10=
EXTT11=
EXTT12=
EXTT13=
EXTT14=
EXTT15=
EXTT16=
EXTT17=
EXTT18=
EXTT19=
EXTT20=
PLAYORDER=
